<?xml version="1.0" standalone="no"?>
<!DOCTYPE svg PUBLIC "-//W3C//DTD SVG 20010904//EN"
 "http://www.w3.org/TR/2001/REC-SVG-20010904/DTD/svg10.dtd">
<svg version="1.0" xmlns="http://www.w3.org/2000/svg"
 width="260.000000pt" height="260.000000pt" viewBox="0 0 260.000000 260.000000"
 preserveAspectRatio="xMidYMid meet">
<metadata>
Created by potrace 1.11, written by Peter Selinger 2001-2013
</metadata>
<g transform="translate(0.000000,260.000000) scale(0.100000,-0.100000)"
fill="#000000" stroke="none">
<path d="M0 1300 l0 -1300 1300 0 1300 0 0 1300 0 1300 -1300 0 -1300 0 0
-1300z m1716 10 c123 -630 225 -1157 228 -1172 l6 -28 -200 0 c-142 0 -200 3
-200 11 0 24 -280 1652 -285 1657 -3 3 -7 3 -10 0 -5 -5 -285 -1633 -285
-1657 0 -8 -58 -11 -201 -11 -186 0 -200 1 -195 18 2 9 104 532 226 1162 122
630 223 1151 225 1158 4 10 56 12 236 10 l232 -3 223 -1145z"/>
</g>
</svg>
